<svg id="Calque_1" data-name="Calque 1" xmlns="http://www.w3.org/2000/svg" viewBox="0 0 283.46 283.46"><defs><style>.cls-1{fill:#d10019;}</style></defs><polygon class="cls-1" points="47.21 199.85 41.43 199.85 53.29 182.07 61.87 182.07 61.87 199.89 56.27 199.89 56.27 196.32 49.38 196.32 47.21 199.85"/><polygon class="cls-2" points="56.66 186.43 56.66 192.09 52.16 192.09 55.54 186.46 56.66 186.43"/><polygon class="cls-1" points="111.71 199.77 105.94 199.77 117.78 182 126.37 182 126.37 199.81 120.78 199.81 120.78 196.25 113.88 196.25 111.71 199.77"/><polygon class="cls-2" points="121.16 186.35 121.16 192.01 116.66 192.01 120.03 186.39 121.16 186.35"/><polygon class="cls-1" points="65.27 199.81 70.56 199.81 75.17 182.11 69.66 182.11 65.27 199.81"/><polygon class="cls-1" points="211.3 199.59 216.59 199.59 221.2 181.89 215.69 181.89 211.3 199.59"/><path class="cls-1" d="M96,187s.22-4.28-3.83-5l-13,0-4.74,17.81H80l1.8-6.52h.79l5.51,6.52h6.3L89,192.57S95.47,193.25,96,187Zm-7.88,2.73-5.49,0,1-3.91,4.41-.08v0c.05,0,.08,0,.12,0a2,2,0,1,1,0,3.94Z"/><path class="cls-1" d="M209.47,186.91s.23-4.27-3.82-5l-13,0-4.73,17.81h5.55l1.8-6.53h.79l5.51,6.53h6.3l-5.36-7.24S209,193.14,209.47,186.91Zm-7.88,2.74-5.49,0,1-3.91,4.42-.09v.05a.45.45,0,0,1,.11,0,2,2,0,1,1,0,3.94Z"/><polygon class="cls-1" points="129.89 199.81 134.05 182.11 139.91 182.11 136.72 195.13 144.75 195.13 143.72 199.81 129.89 199.81"/><path class="cls-1" d="M167.47,182.76s-18.95-5.52-20.75,9.16c0,0-.79,13.44,16.87,6.38l2-8h-6.21l-1.27,5.28s-5.57,2.1-5.4-3.11c0,0-.11-7.63,13.56-5.26Z"/><polygon class="cls-1" points="172.25 182.04 176.98 182.04 178.78 179.9 185.19 179.9 183.89 182.09 188.9 182.09 187.95 185.86 176.47 185.92 175.97 188.34 186.43 188.56 185.59 192.39 175.18 192.28 174.67 194.97 185.64 194.97 184.46 199.64 167.87 199.64 172.25 182.04"/><polygon class="cls-1" points="225.6 181.81 242.7 181.81 241.65 186.03 229.72 186.03 229.04 188.56 239.32 188.56 238.65 192.46 228.22 192.62 227.55 195.06 239.17 195.06 238.42 199.66 221.32 199.66 225.6 181.81"/><polygon class="cls-1" points="241.44 154.74 245.27 154.74 242.23 169.87 238.41 169.87 241.44 154.74"/><polygon class="cls-1" points="235.63 154.81 239.34 154.81 236.42 169.94 205.31 169.94 204.35 174.67 190.63 174.67 190.91 171.63 201.15 171.63 201.43 169.94 195.41 169.94 197.04 161.39 206.89 161.39 206.15 166.46 210.49 166.46 211.5 161.39 216 161.39 216.73 154.81 221 154.81 220.27 161.22 224.15 161.22 223.65 166.46 233.38 166.46 233.72 164.43 228.26 164.43 228.49 161.39 234.34 161.39 235.63 154.81"/><polygon class="cls-2" points="214.99 164.32 219.65 164.32 219.49 166.34 214.7 166.34 214.99 164.32"/><polygon class="cls-2" points="200.14 164.43 202.67 164.43 202.33 166.46 199.69 166.46 200.14 164.43"/><polygon class="cls-1" points="229.84 157.23 233.77 157.23 233.21 160.27 229.16 160.27 229.84 157.23"/><polygon class="cls-1" points="84.69 161.13 88.63 161.13 88.07 164.17 84.02 164.17 84.69 161.13"/><polygon class="cls-1" points="91.26 171.48 95.19 171.48 94.63 174.52 90.58 174.52 91.26 171.48"/><polyline class="cls-1" points="184.46 154.74 188.79 154.74 187.66 161.32 192.22 161.32 190.59 169.87 172.03 169.87 172.81 166.38 177.54 166.38 178.55 161.32 183.33 161.32 184.35 154.74"/><polygon class="cls-2" points="182.66 164.36 187.16 164.36 186.82 166.38 182.27 166.38 182.66 164.36"/><polygon class="cls-1" points="163.93 170.02 159.99 170.02 163.14 154.89 166.91 154.89 163.93 170.02"/><polygon class="cls-1" points="105.15 169.98 101.21 169.98 104.36 154.85 108.13 154.85 105.15 169.98"/><polygon class="cls-1" points="77.49 169.87 73.56 169.87 76.7 154.74 80.47 154.74 77.49 169.87"/><polygon class="cls-1" points="161.42 154.74 158.32 169.87 145.55 169.87 144.6 174.6 131.71 174.6 132.28 171.56 141.67 171.56 142.01 169.87 136.22 169.87 137.91 161.32 147.47 161.32 146.56 166.38 154.84 166.38 155.4 164.36 151.8 164.36 152.47 161.32 155.96 161.32 157.59 154.74 161.42 154.74"/><polygon class="cls-2" points="140.62 164.71 143.15 164.71 142.82 166.74 140.17 166.74 140.62 164.71"/><polygon class="cls-1" points="149.75 174.52 150.31 171.48 154.14 171.48 153.52 174.52 149.75 174.52"/><polygon class="cls-1" points="114.62 161.34 123.61 161.34 122.72 166.23 127.61 166.23 128.85 161.34 132.73 161.34 130.87 169.89 117.94 169.89 118.11 168.59 112.87 168.59 114.62 161.34"/><polygon class="cls-2" points="116.81 164.54 119.28 164.54 119.06 166.34 116.47 166.34 116.81 164.54"/><polygon class="cls-1" points="40.99 161.38 49.99 161.38 49.09 166.27 53.98 166.27 55.22 161.38 59.1 161.38 57.24 169.93 44.31 169.93 44.47 168.63 39.24 168.63 40.99 161.38"/><polygon class="cls-2" points="43.97 164.17 46.44 164.17 46.22 165.97 43.63 165.97 43.97 164.17"/><polygon class="cls-1" points="123.62 159.65 124.2 156.61 115.89 156.61 115.14 159.65 123.62 159.65"/><polygon class="cls-1" points="49.97 159.56 50.55 156.52 42.24 156.52 41.49 159.56 49.97 159.56"/><polygon class="cls-1" points="56.61 174.46 57.17 171.39 49.12 171.39 48.39 174.46 56.61 174.46"/><polygon class="cls-1" points="129.9 174.52 130.46 171.48 122.42 171.48 121.69 174.52 129.9 174.52"/><polygon class="cls-1" points="102.13 154.74 99.09 169.87 86.43 169.87 85.48 174.6 76.81 174.6 77.26 171.56 82.16 171.56 83.28 166.38 95.66 166.38 96.11 164.36 92.17 164.36 92.62 161.32 97.12 161.32 98.64 154.74 102.13 154.74"/><polygon class="cls-1" points="69.45 162.31 73.05 162.24 71.62 169.44 67.94 169.51 66.75 174.46 58.2 174.69 58.72 171.31 63.75 171.31 64.72 166.51 68.77 166.51 69.45 162.31"/><polygon class="cls-1" points="68.96 160.25 73.29 160.25 74.08 156.65 74.58 156.65 74.7 155.36 71.49 155.25 70.7 158.9 69.24 159.07 68.96 160.25"/><path class="cls-1" d="M204.1,100.63c0-26.09-27.72-47.23-61.92-47.23S80.25,74.54,80.25,100.63s27.73,47.22,61.93,47.22S204.1,126.71,204.1,100.63Z"/><path class="cls-2" d="M112.9,63.37s11,5.09,18.91,14c0,0,16.05,17.14,19.12,18.71,0,0-6.44,4.51-33.38-21.06,0,0-16.53,13.23-17.33,24.2H200.84l.1,3.43H100s.79,9.6,16.14,23.9c0,0,22.48-19.79,34.86-21.65l.69-.1a159,159,0,0,0-13.67,13.13s-15.25,15.88-26.33,19.69c0,0-40.91-17.44-24-53C87.75,84.63,93.65,72.23,112.9,63.37Z"/><path class="cls-2" d="M131.08,57.17c62.66-6.33,69.68,40.55,69.68,40.55S181.66,101.6,162.94,80c0,0-11.51-12.28-14.82-14.81a28.53,28.53,0,0,0-14.65-7.41Z"/><path class="cls-2" d="M131.38,143.77c62.66,6.2,69.67-39.68,69.67-39.68s-19.1-3.79-37.81,17.36c0,0-11.52,12-14.83,14.5a28.73,28.73,0,0,1-14.64,7.25Z"/><polyline class="cls-2" points="228.26 164.43 229.94 156.95 229.16 157.01 227.41 164.49 228.14 164.43"/></svg>